<svg width="19" height="15" viewBox="0 0 19 15" fill="none" xmlns="http://www.w3.org/2000/svg">
<path d="M5.44113 11.5605C3.9805 10.5234 2.82467 9.17442 2.17155 8.32258C1.98891 8.08744 1.88977 7.79818 1.88977 7.50044C1.88977 7.2027 1.98891 6.91343 2.17155 6.67829C3.3535 5.13533 6.18925 1.95837 9.5 1.95837C10.9852 1.95837 12.3738 2.59725 13.5613 3.44196" stroke="#FFFFFF" stroke-width="2" stroke-linecap="round" stroke-linejoin="round"/>
<path d="M11.1862 5.82723C10.9664 5.60371 10.7045 5.42594 10.4156 5.30416C10.1267 5.18238 9.81651 5.11901 9.50299 5.1177C9.18948 5.11638 8.87881 5.17716 8.5889 5.29651C8.29899 5.41586 8.03558 5.59144 7.81386 5.8131C7.59215 6.03476 7.41651 6.29813 7.29709 6.58801C7.17767 6.87789 7.11682 7.18855 7.11806 7.50207C7.1193 7.81558 7.1826 8.12575 7.30431 8.41467C7.42602 8.7036 7.60373 8.96557 7.82719 9.18548" stroke="#FFFFFF" stroke-width="2" stroke-linecap="round" stroke-linejoin="round"/>
<path d="M3.16663 13.8334L15.8333 1.16669" stroke="#FFFFFF" stroke-width="2" stroke-linecap="round" stroke-linejoin="round"/>
<path d="M7.91663 12.8073C8.43058 12.9603 8.96373 13.0392 9.49996 13.0417C12.8107 13.0417 15.6465 9.86471 16.8284 8.32175C17.011 8.08639 17.11 7.79695 17.1099 7.49907C17.1098 7.2012 17.0104 6.91185 16.8276 6.67667C16.4122 6.13476 15.9666 5.61672 15.4929 5.125" stroke="#FFFFFF" stroke-width="2" stroke-linecap="round" stroke-linejoin="round"/>
</svg>
