<svg width="197" height="62" viewBox="0 0 197 62" fill="none" xmlns="http://www.w3.org/2000/svg">
<g filter="url(#filter0_d_114_327)">
<path d="M11.3262 20.584L11.5459 23.5381C13.4176 21.2432 15.9486 20.0957 19.1387 20.0957C22.5404 20.0957 24.876 21.4385 26.1455 24.124C28.001 21.4385 30.6458 20.0957 34.0801 20.0957C36.9447 20.0957 39.0768 20.9339 40.4766 22.6104C41.8763 24.2705 42.5762 26.777 42.5762 30.1299V47H35.4961V30.1543C35.4961 28.6569 35.2031 27.5664 34.6172 26.8828C34.0312 26.1829 32.9977 25.833 31.5166 25.833C29.4007 25.833 27.9359 26.8421 27.1221 28.8604L27.1465 47H20.0908V30.1787C20.0908 28.6488 19.7897 27.542 19.1875 26.8584C18.5853 26.1748 17.5599 25.833 16.1113 25.833C14.1094 25.833 12.6608 26.6631 11.7656 28.3232V47H4.70996V20.584H11.3262ZM45.9219 33.5479C45.9219 30.9274 46.4264 28.5918 47.4355 26.541C48.4447 24.4902 49.8932 22.9033 51.7812 21.7803C53.6855 20.6572 55.891 20.0957 58.3975 20.0957C61.9619 20.0957 64.8672 21.1862 67.1133 23.3672C69.3757 25.5482 70.637 28.5104 70.8975 32.2539L70.9463 34.0605C70.9463 38.1133 69.8151 41.3685 67.5527 43.8262C65.2904 46.2676 62.2549 47.4883 58.4463 47.4883C54.6377 47.4883 51.5941 46.2676 49.3154 43.8262C47.0531 41.3848 45.9219 38.0645 45.9219 33.8652V33.5479ZM52.9775 34.0605C52.9775 36.5671 53.4495 38.4876 54.3936 39.8223C55.3376 41.1406 56.6885 41.7998 58.4463 41.7998C60.1553 41.7998 61.4899 41.1488 62.4502 39.8467C63.4105 38.5283 63.8906 36.4287 63.8906 33.5479C63.8906 31.0902 63.4105 29.1859 62.4502 27.835C61.4899 26.484 60.139 25.8086 58.3975 25.8086C56.6722 25.8086 55.3376 26.484 54.3936 27.835C53.4495 29.1696 52.9775 31.2448 52.9775 34.0605ZM83.7891 38.3818L88.6963 20.584H96.0693L87.1582 47H80.4199L71.5088 20.584H78.8818L83.7891 38.3818ZM105.641 47H98.5605V20.584H105.641V47ZM98.1455 13.748C98.1455 12.6901 98.4954 11.8193 99.1953 11.1357C99.9115 10.4521 100.88 10.1104 102.101 10.1104C103.305 10.1104 104.265 10.4521 104.981 11.1357C105.698 11.8193 106.056 12.6901 106.056 13.748C106.056 14.8223 105.689 15.7012 104.957 16.3848C104.241 17.0684 103.289 17.4102 102.101 17.4102C100.912 17.4102 99.9521 17.0684 99.2197 16.3848C98.5036 15.7012 98.1455 14.8223 98.1455 13.748ZM118.923 14.0898V20.584H123.439V25.7598H118.923V38.9434C118.923 39.9199 119.11 40.6198 119.484 41.043C119.859 41.4661 120.575 41.6777 121.633 41.6777C122.414 41.6777 123.106 41.6208 123.708 41.5068V46.8535C122.325 47.2767 120.9 47.4883 119.436 47.4883C114.488 47.4883 111.965 44.9899 111.867 39.9932V25.7598H108.01V20.584H111.867V14.0898H118.923Z" fill="white"/>
</g>
<g filter="url(#filter1_dd_114_327)">
<path d="M193 28.5L133 3.81828L133 53.1817L193 28.5Z" fill="#FA0202" fill-opacity="0.45" shape-rendering="crispEdges"/>
</g>
<defs>
<filter id="filter0_d_114_327" x="0.709961" y="10.1104" width="126.998" height="45.3779" filterUnits="userSpaceOnUse" color-interpolation-filters="sRGB">
<feFlood flood-opacity="0" result="BackgroundImageFix"/>
<feColorMatrix in="SourceAlpha" type="matrix" values="0 0 0 0 0 0 0 0 0 0 0 0 0 0 0 0 0 0 127 0" result="hardAlpha"/>
<feOffset dy="4"/>
<feGaussianBlur stdDeviation="2"/>
<feComposite in2="hardAlpha" operator="out"/>
<feColorMatrix type="matrix" values="0 0 0 0 0 0 0 0 0 0 0 0 0 0 0 0 0 0 0.25 0"/>

<feBlend mode="normal" in="SourceGraphic" in2="effect1_dropShadow_114_327" result="shape"/>
</filter>
<filter id="filter1_dd_114_327" x="129" y="3.8183" width="68" height="57.3634" filterUnits="userSpaceOnUse" color-interpolation-filters="sRGB">
<feFlood flood-opacity="0" result="BackgroundImageFix"/>
<feColorMatrix in="SourceAlpha" type="matrix" values="0 0 0 0 0 0 0 0 0 0 0 0 0 0 0 0 0 0 127 0" result="hardAlpha"/>
<feOffset dy="4"/>
<feGaussianBlur stdDeviation="2"/>
<feComposite in2="hardAlpha" operator="out"/>
<feColorMatrix type="matrix" values="0 0 0 0 0 0 0 0 0 0 0 0 0 0 0 0 0 0 0.25 0"/>
<feBlend mode="normal" in2="BackgroundImageFix" result="effect1_dropShadow_114_327"/>
<feColorMatrix in="SourceAlpha" type="matrix" values="0 0 0 0 0 0 0 0 0 0 0 0 0 0 0 0 0 0 127 0" result="hardAlpha"/>
<feOffset dy="4"/>
<feGaussianBlur stdDeviation="2"/>
<feComposite in2="hardAlpha" operator="out"/>
<feColorMatrix type="matrix" values="0 0 0 0 0 0 0 0 0 0 0 0 0 0 0 0 0 0 0.25 0"/>
<feBlend mode="normal" in="SourceGraphic" in2="effect2_dropShadow_114_327" result="shape"/>
</filter>
</defs>
</svg>
