<svg enable-background="new 0 0 512 512" viewBox="0 0 512 512" xmlns="http://www.w3.org/2000/svg">
    <g fill="#fe6d8e">
        <path d="m119.4 201.1h-22.9v-55.7h-20.3v-20h63.4v20h-20.2z"/>
        <path d="m220.6 201.1h-22.9v-28.9h-27.1v28.9h-22.9v-75.6h22.9v26.8h27.1v-26.8h22.9z"/>
        <path d="m290.3 201.1h-57.4v-75.6h57.4v20h-34.5v7.5h33.7v20h-33.7v8.3h34.5z"/>
        <path d="m166 291.9h-22.9v-45.5l-16.9 45.5h-10.2l-16.9-45.5v45.5h-22.9v-75.6h31.6l13.3 36.3 13.3-36.3h31.6z"/>
        <path d="m245.1 282.3c-7.9 7.3-17.7 10.9-29.5 10.9s-21.6-3.6-29.5-10.9-11.8-16.7-11.8-28.2 3.9-20.9 11.8-28.2 17.7-10.9 29.5-10.9 21.6 3.6 29.5 10.9 11.8 16.7 11.8 28.2-3.9 20.9-11.8 28.2zm-42.7-14.7c3.4 3.6 7.7 5.4 13.1 5.4s9.7-1.8 13.1-5.4 5-8.1 5-13.5-1.7-9.9-5-13.5c-3.4-3.6-7.7-5.4-13.1-5.4s-9.7 1.8-13.1 5.4-5 8.1-5 13.5 1.7 9.9 5 13.5z"/>
        <path d="m337 239.7v28.8l-75.6 27.9v-26l50.9-16.3-50.9-16.3v-26z"/>
        <path d="m368.5 291.9h-22.9v-75.6h22.9z"/>
        <path d="m438.1 291.9h-57.4v-75.6h57.4v20h-34.5v7.5h33.7v20h-33.7v8.3h34.5z"/>
        <path d="m316.6 382.8h-33.9v-75.6h33.8c12.2 0 22.2 3.3 29.9 10s11.6 15.9 11.6 27.7-3.9 21.1-11.6 27.8-17.7 10.1-29.8 10.1zm-.1-20c5.5 0 9.9-1.7 13.3-5.2 3.3-3.5 5-7.7 5-12.7 0-5.4-1.6-9.7-4.6-12.9-3.1-3.2-7.6-4.9-13.5-4.9h-11v35.7z"/>
        <path d="m413.6 382.8h-47.5v-75.6h45.9c7.3 0 12.8 2 16.7 5.9s5.8 8.4 5.8 13.4c0 4.6-1.2 8.4-3.6 11.5s-5.5 5-9.3 5.8c4.2.6 7.6 2.6 10.3 6.1 2.7 3.4 4.1 7.6 4.1 12.4 0 5.7-1.9 10.5-5.8 14.5s-9.4 6-16.6 6zm-6.9-47.8c1.2 0 2.3-.4 3.2-1.3s1.4-1.9 1.4-3.2-.5-2.3-1.4-3.1-2-1.2-3.2-1.2h-17.7v8.8zm.7 28.7c1.7 0 3-.4 3.9-1.3s1.4-2 1.4-3.5c0-1.4-.5-2.5-1.5-3.5-1-.9-2.3-1.4-3.9-1.4h-18.3v9.6h18.4z"/>
        <path d="m229.8 307.1c12.2 0 22.2 3.3 29.9 10s11.6 15.9 11.6 27.7-3.9 21.1-11.6 27.8-17.7 10.1-29.8 10.1h-112.3c-12.2 0-22.1-3.4-29.8-10.1s-11.6-16-11.6-27.8 3.9-21 11.6-27.7 17.7-10 29.9-10zm-112.2 20c-5.9 0-10.4 1.6-13.5 4.9s-4.6 7.6-4.6 12.9c0 5 1.7 9.2 5 12.7s7.7 5.2 13.3 5.2h112.1c5.5 0 9.9-1.7 13.3-5.2 3.3-3.5 5-7.7 5-12.7 0-5.4-1.6-9.7-4.6-12.9-3.1-3.2-7.6-4.9-13.5-4.9z"/>
        <path d="m397.2 125.5c12.2 0 22.2 3.3 29.9 10s11.6 15.9 11.6 27.7-3.9 21.1-11.6 27.8-17.7 10.1-29.8 10.1h-56.3c-12.2 0-22.1-3.4-29.8-10.1s-11.6-16-11.6-27.8 3.9-21 11.6-27.7 17.7-10 29.9-10zm-56.2 19.9c-5.9 0-10.4 1.6-13.5 4.9s-4.6 7.6-4.6 12.9c0 5 1.7 9.2 5 12.7s7.7 5.2 13.3 5.2h56.1c5.5 0 9.9-1.7 13.3-5.2 3.3-3.5 5-7.7 5-12.7 0-5.4-1.6-9.7-4.6-12.9-3.1-3.2-7.6-4.9-13.5-4.9z"/>
    </g>
</svg>