<?xml version="1.0" encoding="utf-8"?>
<!-- Generator: Adobe Illustrator 23.0.0, SVG Export Plug-In . SVG Version: 6.00 Build 0)  -->
<svg version="1.1" id="Слой_1" xmlns="http://www.w3.org/2000/svg" xmlns:xlink="http://www.w3.org/1999/xlink" x="0px" y="0px"
	 viewBox="0 0 19 15" style="enable-background:new 0 0 19 15;" xml:space="preserve">
<style type="text/css">
	.st0{fill:none;stroke:#A9885B;stroke-width:2;stroke-linecap:round;stroke-linejoin:round;}
</style>
<path class="st0" d="M5.4,11.6c-1.5-1-2.6-2.4-3.3-3.2C2,8.1,1.9,7.8,1.9,7.5S2,6.9,2.2,6.7C3.4,5.1,6.2,2,9.5,2
	c1.5,0,2.9,0.6,4.1,1.5"/>
<path class="st0" d="M11.2,5.8c-0.2-0.2-0.5-0.4-0.8-0.5c-0.3-0.1-0.6-0.2-0.9-0.2c-0.3,0-0.6,0.1-0.9,0.2C8.3,5.4,8,5.6,7.8,5.8
	C7.6,6,7.4,6.3,7.3,6.6C7.2,6.9,7.1,7.2,7.1,7.5c0,0.3,0.1,0.6,0.2,0.9C7.4,8.7,7.6,9,7.8,9.2"/>
<path class="st0" d="M7.9,12.8C8.4,13,9,13,9.5,13c3.3,0,6.1-3.2,7.3-4.7c0.2-0.2,0.3-0.5,0.3-0.8c0-0.3-0.1-0.6-0.3-0.8
	c-0.4-0.5-0.9-1.1-1.3-1.6"/>
<path class="st0" d="M10.5,9.9c0.3-0.1,0.6-0.3,0.8-0.5c0.2-0.2,0.4-0.5,0.5-0.8"/>
</svg>
